# xmcd
#
# Track frame offsets:
#	150
#	20588
#	41386
#	64681
#	95462
#	120709
#	143022
#	167229
#	191515
#	208136
#	237942
#	264422
#
# Disc length: 3806 seconds
#
# Revision: 1
# Processed by: cddbd v1.5.2PL0 Copyright (c) Steve Scherf et al.
# Submitted via: audiograbber 1.83.01
#
DISCID=a50edc0c
DTITLE=Koko Taylor - Cold School
DYEAR=2007
DGENRE=Blues
TTITLE0=Piece of man
TTITLE1=Gonna buy me a mule
TTITLE2=Black rat
TTITLE3=Money is the name of the game
TTITLE4=You ain't worth a good woman
TTITLE5=Better watch your step
TTITLE6=Bad Avenue
TTITLE7=Bad Rooster
TTITLE8=Don't go no further
TTITLE9=All your love
TTITLE10=Hard pill to swallow
TTITLE11=Young fashioned ways
EXTD=Alligator Records
EXTT0=
EXTT1=
EXTT2=
EXTT3=
EXTT4=
EXTT5=
EXTT6=
EXTT7=
EXTT8=
EXTT9=
EXTT10=
EXTT11=
PLAYORDER=
